{"title":"How.Do.You.Know.2010.PROPER.DVDRip.XviD-SPRiNTER","uid":6341334,"size":1498376508,"categoryP":"video","categoryS":"movies","magnet":"?xt=urn:btih:e1de5cb015bc11b3bf826db3d84b6d50d06b33c6&amp;dn=How.Do.You.Know.2010.PROPER.DVDRip.XviD-SPRiNTER&amp;tr=udp%3A%2F%2Ftracker.openbittorrent.com%3A80&amp;tr=udp%3A%2F%2Fopen.demonii.com%3A1337&amp;tr=udp%3A%2F%2Ftracker.coppersurfer.tk%3A6969&amp;tr=udp%3A%2F%2Fexodus.desync.com%3A6969","seeders":1,"leechers":5,"uploader":"sceneline","files":110,"time":1303676318,"description":"-\nhttp:// www. Speed. Cd       \nhttp:// www. Speed. Cd       the fast  and The Hottest Private Tracker on the net\n\nPlease Seed back to make the speed Faster!!!\n\nand don't forget to visit      ...... www. Speed. Cd..........\n-                                                     \n                                                   \n                                                         \n                                                          \n                                                           \n                                                          \n                                                          \n                                                          \n                                                           \n                                                         \n                                                          \n                                                        \n                                                      \n                                     \n                                                 \n                                                   \n                                             \n                                              \n                                                     \n                                                      \n                                                      \n                                                      \n                                                    \n                                                     \n                                                   \n                                                     \n                                                     \n                                                      \n                                                     \n                                                      \n                                                    \n                 ARTiCHOKE                        \n                                                \n                      \n                                                        \n                                                      \n                                                      \n                                               \n                                          \n                                                   \n                                            \n                                                    \n                                                       \n                                                        \n                                                      \n                                                \n                                                        \n                                                 \n                                              \n                                                  \n                                                \n                                                  \n                                        \n\n      \n                                \n      SPRiNTER proudly presents...     \n                                \n      \n \n How.Do.You.Know.2010.PROPER.DVDRip.XviD-SPRiNTER\n\n Date: 2011.04\n\n &lt;a href=&quot; http://www.imdb.com/title/tt1341188/&quot; rel=&quot;nofollow&quot; target=&quot;_NEW&quot;&gt; http://www.imdb.com/title/tt1341188/&lt;/a&gt;\n\n Genre: Comedy | Drama | Romance\n Subtitles: English, Spanish, France\n\n      \n                 \n      Release notes     \n                 \n      \n\n How.Do.You.Know.BDRip.XviD-DASH &lt; nuked for fake proof, see jpg in sample dir (from localnet)\n\n\n Enjoy!\n\n\n      \n           \n     Greetings    \n           \n      \n\n\nNTX aAF FiCO HNR CiNEFiLE AEN HUMANiSM TASTE 0MNiDVD\n\n\n      \n           \n      Details     \n           \n      \n\nFormat                           : AVI\nFormat/Info                      : Audio Video Interleave\nFile size                        : 1.36 GiB\nDuration                         : 2h 0mn\nOverall bit rate                 : 1 616 Kbps\nWriting application              : VirtualDubMod 1.5.10.2 (build 2540/release)\nWriting library                  : VirtualDubMod build 2540/release\n\nVideo\nID                               : 0\nFormat                           : MPEG-4 Visual\nFormat profile                   : Advanced Simple@L5\nFormat settings, BVOP            : Yes\nFormat settings, QPel            : No\nFormat settings, GMC             : No warppoints\nFormat settings, Matrix          : Default (H.263)\nCodec ID                         : XVID\nCodec ID/Hint                    : XviD\nDuration                         : 2h 0mn\nBit rate                         : 1 159 Kbps\nWidth                            : 576 pixels\nHeight                           : 304 pixels\nDisplay aspect ratio             : 1.895\nFrame rate                       : 23.976 fps\nColor space                      : YUV\nChroma subsampling               : 4:2:0\nBit depth                        : 8 bits\nScan type                        : Progressive\nBits/(Pixel*Frame)               : 0.276\nStream size                      : 1 002 MiB (72%)\nWriting library                  : XviD 1.1.2 (UTC 2006-11-01)\n\nAudio\nID                               : 1\nFormat                           : AC-3\nFormat/Info                      : Audio Coding 3\nMode extension                   : CM (complete main)\nCodec ID                         : 2000\nDuration                         : 2h 0mn\nBit rate mode                    : Constant\nBit rate                         : 448 Kbps\nChannel(s)                       : 6 channels\nChannel positions                : Front: L C R, Side: L R, LFE\nSampling rate                    : 48.0 KHz\nStream size                      : 387 MiB (28%)\nAlignment                        : Split accross interleaves\nInterleave, duration             : 42 ms (1.00 video frame)\nInterleave, preload duration     : 500 ms","torrent":{"xt":"urn:btih:e1de5cb015bc11b3bf826db3d84b6d50d06b33c6","amp;dn":"How.Do.You.Know.2010.PROPER.DVDRip.XviD-SPRiNTER","amp;tr":["udp%3A%2F%2Ftracker.openbittorrent.com%3A80","udp%3A%2F%2Fopen.demonii.com%3A1337","udp%3A%2F%2Ftracker.coppersurfer.tk%3A6969","udp%3A%2F%2Fexodus.desync.com%3A6969"],"infoHash":"e1de5cb015bc11b3bf826db3d84b6d50d06b33c6","infoHashBuffer":{"type":"Buffer","data":[225,222,92,176,21,188,17,179,191,130,109,179,216,75,109,80,208,107,51,198]},"announce":[],"urlList":[]}}